<?xml version="1.0" encoding="UTF-8"?>
<svg width="20px" height="21px" viewBox="0 0 20 21" version="1.1" xmlns="http://www.w3.org/2000/svg" xmlns:xlink="http://www.w3.org/1999/xlink">
    <title>a</title>
    <g id="Page-1" stroke="none" stroke-width="1" fill="none" fill-rule="evenodd">
        <g id="about" transform="translate(-235.000000, -1987.000000)" fill="#000000" fill-rule="nonzero">
            <path d="M244.999976,2007.18749 C250.351526,2007.18749 254.687453,2002.85157 254.687453,1997.50002 C254.687453,1992.14847 250.351526,1987.81254 244.999976,1987.81254 C239.648426,1987.81254 235.312499,1992.14847 235.312499,1997.50002 C235.312499,2002.85157 239.648426,2007.18749 244.999976,2007.18749 Z M244.999976,2005.9375 C240.363261,2005.9375 236.562496,2002.18362 236.562496,1997.50002 C236.562496,1992.8633 240.316378,1989.06254 244.999976,1989.06254 C249.636691,1989.06254 253.437456,1992.81642 253.437456,1997.50002 C253.437456,2002.13673 249.683574,2005.9375 244.999976,2005.9375 Z M245.488256,2002.32423 L249.984324,1997.83205 C250.167925,1997.64845 250.167925,1997.35159 249.984324,1997.16799 L245.488256,1992.67581 C245.304655,1992.49221 245.007796,1992.49221 244.820304,1992.67581 L244.550758,1992.94536 C244.367158,1993.12892 244.371087,1993.42971 244.558579,1993.61331 L247.902305,1996.83596 L240.468737,1996.83596 C240.21094,1996.83596 239.999988,1997.04691 239.999988,1997.30471 L239.999988,1997.69533 C239.999988,1997.95313 240.21094,1998.16408 240.468737,1998.16408 L247.906234,1998.16408 L244.56247,2001.38673 C244.371087,2001.5664 244.371087,2001.87112 244.554649,2002.05468 L244.824195,2002.32423 C245.007796,2002.50783 245.304655,2002.50783 245.488256,2002.32423 Z" id="a"></path>
        </g>
    </g>
</svg>